# xmcd
# 
# Track frame offsets:
#     150
#     16315
#     26272
#     39540
#     49063
#     68092
#     83799
#     99817
#     114496
#     127983
#     138401
#     150402
#     166464
#     183243
#     193116
#     207810
#     222548
#     236086
#     249779
#     261765
# 
# Disc length: 3664
# 
# Revision: 0
# Processed by: cddbd v1.5.2PL0 Copyright (c) Steve Scherf et al.
# Submitted via: BonkEnc v1.0.8
# 
DISCID=050e4e14
DTITLE=Ray Charles - Greatest Country and Western Hits
DYEAR=0
DGENRE=Rhythm and Blues
TTITLE0=Your Cheating Heart
TTITLE1=Hey Good Lookin´
TTITLE2=Take These Chains From My Heart
TTITLE3=Don´t Tell Me Your Troubles
TTITLE4=I Can´t Stop Loving You
TTITLE5=Just A Little Lovin´ (Will Go A Long Way)
TTITLE6=It Makes No Difference Now
TTITLE7=You Don´t Know Me
TTITLE8=You Are My Sunshine
TTITLE9=I´ll Never Stand In Your Way
TTITLE10=Someday (You´ll Want Me To Want You)
TTITLE11=I Love You So Much It Hurts
TTITLE12=Careless Love
TTITLE13=Oh, Lonesome Me
TTITLE14=Hang Your Head In Shame
TTITLE15=Midnight
TTITLE16=No Letter Today
TTITLE17=Crying Time
TTITLE18=Together Again
TTITLE19=Don´t Let Her Know
EXTD=
EXTT0=Yesterday: 22.07.1994
EXTT1=
EXTT2=Yesterday: 02.10.1998
EXTT3=Yesterday: 06.12.1996
EXTT4=Yesterday: 07.01.94 , 17.04.98 , 20.07.01 , 14.02.03
EXTT5=
EXTT6=
EXTT7=Yesterday: 07.05.1999
EXTT8=Yesterday: 04.03.1994
EXTT9=
EXTT10=
EXTT11=
EXTT12=
EXTT13=
EXTT14=
EXTT15=
EXTT16=
EXTT17=
EXTT18=Yesterday: 09.12.1994
EXTT19=
PLAYORDER=
